<svg width="354" height="354" viewBox="0 0 354 354" fill="none" xmlns="http://www.w3.org/2000/svg">
<circle cx="177.202" cy="177" r="175.5" fill="#AEFF7C" stroke="black" stroke-width="3"/>
<path d="M123.881 197.41C121.251 197.41 118.972 196.805 117.045 195.594C115.118 194.37 113.634 192.677 112.592 190.516C111.551 188.354 111.03 185.854 111.03 183.016V182.547C111.03 179.682 111.551 177.176 112.592 175.027C113.647 172.866 115.086 171.18 116.909 169.969C118.732 168.758 120.802 168.152 123.12 168.152C125.333 168.152 127.208 168.406 128.745 168.914C130.294 169.422 131.616 170.105 132.709 170.965V176.707H129.545L129.135 172.586C128.497 172.169 127.716 171.857 126.792 171.648C125.867 171.427 124.773 171.316 123.51 171.316C121.883 171.316 120.418 171.785 119.116 172.723C117.814 173.66 116.785 174.969 116.03 176.648C115.275 178.315 114.897 180.268 114.897 182.508V183.016C114.897 185.281 115.242 187.26 115.932 188.953C116.635 190.633 117.657 191.941 118.999 192.879C120.34 193.803 121.967 194.266 123.881 194.266C125.183 194.266 126.284 194.155 127.182 193.934C128.081 193.699 128.875 193.4 129.565 193.035V186.355L124.116 186.16V183.328H133.413V194.344C132.592 195.112 131.414 195.815 129.877 196.453C128.354 197.091 126.355 197.41 123.881 197.41ZM137.338 197V194.539L140.522 193.992V171.59L137.338 171.043V168.582H150.014C152.084 168.582 153.829 168.895 155.249 169.52C156.681 170.132 157.768 171.023 158.51 172.195C159.252 173.367 159.624 174.799 159.624 176.492C159.624 178.159 159.259 179.559 158.53 180.691C157.814 181.824 156.792 182.684 155.463 183.27C154.135 183.842 152.56 184.148 150.737 184.188L144.37 184.305V193.992L147.553 194.539V197H137.338ZM156.108 197L149.78 182.801L153.627 182.762L158.881 194.129L160.854 194.48V197H156.108ZM144.37 181.277H149.624C151.772 181.277 153.334 180.867 154.311 180.047C155.288 179.227 155.776 178.029 155.776 176.453C155.776 174.956 155.307 173.771 154.37 172.898C153.432 172.026 151.98 171.59 150.014 171.59H144.37V181.277ZM164.409 197V194.539L167.592 193.992V171.59L164.409 171.043V168.562H185.463V175.398H182.377L181.948 171.531H171.44V180.789H181.928V183.816H171.44V194.109H182.573L183.002 190.184H186.069V197H164.409ZM189.917 197V194.539L193.1 193.992V171.59L189.917 171.043V168.562H210.971V175.398H207.885L207.456 171.531H196.948V180.789H207.436V183.816H196.948V194.109H208.081L208.51 190.184H211.577V197H189.917ZM215.463 197V194.539L218.647 193.992V171.59L215.463 171.043V168.562H218.647H222.534L236.479 190.73L236.596 190.691V171.59L233.1 171.043V168.562H240.131H243.315V171.043L240.131 171.59V197H236.616L222.299 174.715L222.182 174.754V193.992L225.678 194.539V197H215.463Z" fill="black"/>
</svg>
