<svg width="354" height="354" viewBox="0 0 354 354" fill="none" xmlns="http://www.w3.org/2000/svg">
<circle cx="177" cy="177" r="175.5" fill="#FFF87C" stroke="black" stroke-width="3"/>
<path d="M102.547 197V194.539L105.73 193.992V186.648L96.9805 171.414L94.6367 171.043V168.562H104.441V171.043L101.199 171.414L107.234 182.586L107.645 183.348L107.664 183.309L108.055 182.586L114.383 171.414L111.023 171.043V168.562H120.633V171.043L118.152 171.414L109.559 186.355V193.992L112.742 194.539V197H102.547ZM123.504 197V194.539L126.688 193.992V171.59L123.504 171.043V168.562H144.559V175.398H141.473L141.043 171.531H130.535V180.789H141.023V183.816H130.535V194.109H141.668L142.098 190.184H145.164V197H123.504ZM149.012 197V194.539L152.195 193.992V171.59L149.012 171.043V168.562H152.195H156.043H159.227V171.043L156.043 171.59V194.051H166.102L166.551 189.559H169.5V197H149.012ZM172.645 197V194.539L175.828 193.992V171.59L172.645 171.043V168.562H175.828H179.676H182.859V171.043L179.676 171.59V194.051H189.734L190.184 189.559H193.133V197H172.645ZM206.59 197.41C204.754 197.41 203.107 197.059 201.648 196.355C200.19 195.652 198.947 194.663 197.918 193.387C196.902 192.098 196.121 190.574 195.574 188.816C195.04 187.059 194.773 185.118 194.773 182.996V182.586C194.773 180.477 195.04 178.543 195.574 176.785C196.121 175.014 196.902 173.484 197.918 172.195C198.947 170.906 200.19 169.91 201.648 169.207C203.107 168.504 204.754 168.152 206.59 168.152C208.53 168.152 210.236 168.504 211.707 169.207C213.178 169.91 214.409 170.906 215.398 172.195C216.401 173.484 217.156 175.014 217.664 176.785C218.172 178.543 218.426 180.477 218.426 182.586V182.996C218.426 185.118 218.172 187.059 217.664 188.816C217.156 190.574 216.401 192.098 215.398 193.387C214.409 194.663 213.178 195.652 211.707 196.355C210.236 197.059 208.53 197.41 206.59 197.41ZM206.59 194.207C208.478 194.207 210.001 193.738 211.16 192.801C212.332 191.863 213.191 190.555 213.738 188.875C214.285 187.182 214.559 185.223 214.559 182.996V182.547C214.559 180.333 214.279 178.393 213.719 176.727C213.172 175.047 212.312 173.738 211.141 172.801C209.969 171.85 208.452 171.375 206.59 171.375C204.884 171.375 203.439 171.85 202.254 172.801C201.069 173.751 200.171 175.066 199.559 176.746C198.947 178.413 198.641 180.346 198.641 182.547V182.996C198.641 185.21 198.947 187.163 199.559 188.855C200.171 190.535 201.069 191.85 202.254 192.801C203.439 193.738 204.884 194.207 206.59 194.207ZM229.48 197L222.84 171.336L220.438 171.043V168.562H229.656V171.043L226.707 171.492L230.418 187.137L231.277 190.789L231.395 190.809L232.527 187.156L238.25 168.562H241.629L247.41 187.156L248.523 191.023H248.641L249.656 187.156L253.328 171.492L250.145 171.043V168.562H259.207V171.043L256.961 171.336L250.594 197H246.941L240.77 177.312L239.988 174.441H239.871L239.109 177.312L232.918 197H229.48Z" fill="black"/>
</svg>
